<svg xmlns="http://www.w3.org/2000/svg">
<symbol id="faction-straw_hat" viewBox="0 0 100 100">
      <path d="M50 5 L87 20 V52 C87 73 73 88 50 96 C27 88 13 73 13 52 V20 Z" fill="#20251e" stroke="#f0d487" stroke-width="5"/>
      <circle cx="50" cy="48" r="24" fill="none" stroke="#f0d487" stroke-width="3" opacity=".65"/>
      <path d="M26 50 Q50 28 74 50 M34 43 Q50 55 66 43 M37 59 H63 M42 63 Q50 70 58 63" fill="none" stroke="#f7df7d" stroke-width="6" stroke-linecap="round"/><path d="M31 38 Q50 20 69 38" fill="#d7a43d" stroke="#f7df7d" stroke-width="3"/>
    </symbol><symbol id="faction-beasts" viewBox="0 0 100 100">
      <path d="M50 5 L87 20 V52 C87 73 73 88 50 96 C27 88 13 73 13 52 V20 Z" fill="#241d2c" stroke="#d7b7f2" stroke-width="5"/>
      <circle cx="50" cy="48" r="24" fill="none" stroke="#d7b7f2" stroke-width="3" opacity=".65"/>
      <path d="M28 67 Q31 35 50 27 Q69 35 72 67 M35 33 L22 17 M65 33 L78 17" fill="none" stroke="#d7b7f2" stroke-width="7" stroke-linecap="round"/><circle cx="50" cy="48" r="8" fill="#d7b7f2"/>
    </symbol><symbol id="faction-kozuki" viewBox="0 0 100 100">
      <path d="M50 5 L87 20 V52 C87 73 73 88 50 96 C27 88 13 73 13 52 V20 Z" fill="#17271f" stroke="#b6f0ce" stroke-width="5"/>
      <circle cx="50" cy="48" r="24" fill="none" stroke="#b6f0ce" stroke-width="3" opacity=".65"/>
      <circle cx="50" cy="50" r="20" fill="none" stroke="#b6f0ce" stroke-width="6"/><path d="M50 21 V79 M21 50 H79 M31 31 L69 69 M69 31 L31 69" stroke="#b6f0ce" stroke-width="4"/>
    </symbol><symbol id="faction-kurozumi" viewBox="0 0 100 100">
      <path d="M50 5 L87 20 V52 C87 73 73 88 50 96 C27 88 13 73 13 52 V20 Z" fill="#2b1715" stroke="#ed9a85" stroke-width="5"/>
      <circle cx="50" cy="48" r="24" fill="none" stroke="#ed9a85" stroke-width="3" opacity=".65"/>
      <path d="M28 62 Q50 18 72 62 Q60 49 50 74 Q40 49 28 62Z" fill="#ed9a85"/><circle cx="50" cy="47" r="6" fill="#2d1714"/>
    </symbol><symbol id="faction-heart" viewBox="0 0 100 100">
      <path d="M50 5 L87 20 V52 C87 73 73 88 50 96 C27 88 13 73 13 52 V20 Z" fill="#282519" stroke="#f4e99a" stroke-width="5"/>
      <circle cx="50" cy="48" r="24" fill="none" stroke="#f4e99a" stroke-width="3" opacity=".65"/>
      <path d="M50 73 C20 55 25 31 40 29 C47 28 50 34 50 34 C50 34 53 28 60 29 C75 31 80 55 50 73Z" fill="none" stroke="#f4e99a" stroke-width="6"/><path d="M35 49 H65 M50 34 V65" stroke="#f4e99a" stroke-width="4"/>
    </symbol><symbol id="faction-kid" viewBox="0 0 100 100">
      <path d="M50 5 L87 20 V52 C87 73 73 88 50 96 C27 88 13 73 13 52 V20 Z" fill="#2c1718" stroke="#ef9999" stroke-width="5"/>
      <circle cx="50" cy="48" r="24" fill="none" stroke="#ef9999" stroke-width="3" opacity=".65"/>
      <path d="M27 66 L34 28 L43 48 L50 22 L57 48 L66 28 L73 66" fill="none" stroke="#ef9999" stroke-width="6"/><circle cx="50" cy="65" r="9" fill="#ef9999"/>
    </symbol><symbol id="faction-big_mom" viewBox="0 0 100 100">
      <path d="M50 5 L87 20 V52 C87 73 73 88 50 96 C27 88 13 73 13 52 V20 Z" fill="#2b1d28" stroke="#f0b7d7" stroke-width="5"/>
      <circle cx="50" cy="48" r="24" fill="none" stroke="#f0b7d7" stroke-width="3" opacity=".65"/>
      <path d="M28 61 Q35 35 50 31 Q65 35 72 61 M33 39 Q50 18 67 39" fill="none" stroke="#f0b7d7" stroke-width="6"/><path d="M33 62 Q50 81 67 62" fill="#f0b7d7"/>
    </symbol><symbol id="stronghold-capital" viewBox="0 0 100 100"><path d="M18 80 H82 V69 H75 V42 H66 V30 H57 V20 H43 V30 H34 V42 H25 V69 H18Z" fill="#d7b56a" stroke="#2b2112" stroke-width="4"/><path d="M33 80 V58 H67 V80" fill="#7d3926"/><path d="M43 20 L50 8 L57 20" fill="#d64e3f"/></symbol><symbol id="stronghold-village" viewBox="0 0 100 100"><path d="M17 72 L34 45 L51 72Z M45 72 L64 38 L83 72Z" fill="#c78a57" stroke="#2b2118" stroke-width="4"/><path d="M12 72 H88 V84 H12Z" fill="#766142"/></symbol><symbol id="stronghold-fortress" viewBox="0 0 100 100"><path d="M14 82 H86 V54 L75 48 V28 L62 34 L50 16 L38 34 L25 28 V48 L14 54Z" fill="#5c445f" stroke="#201727" stroke-width="4"/><path d="M39 82 V57 H61 V82" fill="#1f1823"/><path d="M24 31 L14 15 M76 31 L86 15" stroke="#c39bd0" stroke-width="5"/></symbol><symbol id="stronghold-prison" viewBox="0 0 100 100"><rect x="17" y="23" width="66" height="62" rx="8" fill="#5b6258" stroke="#1f241e" stroke-width="5"/><path d="M31 24 V84 M45 24 V84 M59 24 V84 M73 24 V84" stroke="#1f241e" stroke-width="5"/><path d="M17 43 H83 M17 65 H83" stroke="#1f241e" stroke-width="4"/></symbol><symbol id="stronghold-port" viewBox="0 0 100 100"><path d="M16 70 Q28 57 40 70 T64 70 T88 70" fill="none" stroke="#78b7c9" stroke-width="6"/><path d="M50 18 V69 M35 33 H65 M31 34 Q50 57 69 34" fill="none" stroke="#d6c285" stroke-width="5"/><circle cx="50" cy="21" r="7" fill="#d6c285"/></symbol><symbol id="stronghold-town" viewBox="0 0 100 100"><path d="M13 80 H87 V62 H75 V41 H62 V55 H48 V33 H35 V54 H24 V67 H13Z" fill="#a47552" stroke="#2a2019" stroke-width="4"/><path d="M40 80 V64 H57 V80" fill="#4a2e24"/></symbol><symbol id="stronghold-cemetery" viewBox="0 0 100 100"><path d="M50 15 V84 M29 39 H71" stroke="#9ca5a0" stroke-width="7"/><path d="M25 85 Q50 64 75 85" fill="#47524b"/><circle cx="27" cy="29" r="6" fill="#d8d2b4"/></symbol><symbol id="stronghold-camp" viewBox="0 0 100 100"><path d="M17 81 L50 24 L83 81Z" fill="#8a6645" stroke="#33251b" stroke-width="4"/><path d="M50 24 V81 M35 81 L50 52 L65 81" stroke="#d5be86" stroke-width="4"/><path d="M50 24 V9 L66 16 L50 22" fill="#d8a23e"/></symbol><symbol id="stronghold-anchorage" viewBox="0 0 100 100"><path d="M50 16 V77 M32 35 H68 M22 54 Q50 88 78 54" fill="none" stroke="#f0b4d0" stroke-width="7" stroke-linecap="round"/><circle cx="50" cy="16" r="8" fill="#f0b4d0"/></symbol><symbol id="frame-core" viewBox="0 0 100 100"><rect x="4" y="4" width="92" height="92" rx="12" fill="none" stroke="#f2cf67" stroke-width="6"/><path d="M10 25 L25 10 M75 10 L90 25 M10 75 L25 90 M75 90 L90 75" stroke="#fff0a5" stroke-width="3"/></symbol><symbol id="frame-major" viewBox="0 0 100 100"><rect x="5" y="5" width="90" height="90" rx="11" fill="none" stroke="#c8d2d8" stroke-width="5"/><circle cx="12" cy="12" r="4" fill="#e6eef2"/><circle cx="88" cy="12" r="4" fill="#e6eef2"/></symbol><symbol id="frame-support" viewBox="0 0 100 100"><rect x="6" y="6" width="88" height="88" rx="10" fill="none" stroke="#bc8b58" stroke-width="5"/></symbol><symbol id="frame-minor" viewBox="0 0 100 100"><rect x="7" y="7" width="86" height="86" rx="9" fill="none" stroke="#66736a" stroke-width="4"/></symbol><symbol id="portrait-generic" viewBox="0 0 100 100"><defs><linearGradient id="g" x1="0" y1="0" x2="1" y2="1"><stop stop-color="#26302a"/><stop offset="1" stop-color="#151b17"/></linearGradient></defs><rect width="100" height="100" rx="14" fill="url(#g)"/><circle cx="50" cy="40" r="20" fill="#c9b28d"/><path d="M20 92 Q25 63 50 61 Q75 63 80 92" fill="#4c5a51"/><path d="M31 31 Q50 13 69 31" fill="#252a26"/></symbol><symbol id="portrait-luffy" viewBox="0 0 100 100"><rect width="100" height="100" rx="14" fill="#49201c"/><circle cx="50" cy="43" r="19" fill="#d5a36f"/><path d="M28 31 Q50 12 72 31 L67 38 Q50 30 33 38Z" fill="#d7a52f" stroke="#f1d774" stroke-width="3"/><path d="M30 63 Q50 55 70 63 L78 95 H22Z" fill="#b9362f"/><path d="M40 46 Q44 49 48 46 M55 46 Q59 49 63 46 M44 55 Q50 60 57 55" fill="none" stroke="#39281f" stroke-width="2.5" stroke-linecap="round"/></symbol><symbol id="portrait-zoro" viewBox="0 0 100 100"><rect width="100" height="100" rx="14" fill="#24392d"/><circle cx="50" cy="41" r="19" fill="#c89d70"/><path d="M30 31 Q42 15 70 24 L69 35 Q50 29 31 38Z" fill="#6eaa63"/><path d="M22 94 Q25 64 50 61 Q76 64 79 94" fill="#2d4d38"/><path d="M20 86 L80 72 M20 75 L80 88 M17 66 L84 94" stroke="#d8d0b5" stroke-width="3"/></symbol><symbol id="portrait-sanji" viewBox="0 0 100 100"><rect width="100" height="100" rx="14" fill="#2c2a1c"/><circle cx="50" cy="42" r="19" fill="#d2aa7b"/><path d="M30 22 Q52 10 70 29 Q62 26 56 43 Q47 31 32 39Z" fill="#e0c44a"/><path d="M22 95 Q25 66 50 62 Q75 66 78 95" fill="#262b2d"/><path d="M63 37 Q58 28 50 24" stroke="#e0c44a" stroke-width="7"/></symbol><symbol id="portrait-kaido" viewBox="0 0 100 100"><rect width="100" height="100" rx="14" fill="#261c30"/><path d="M28 37 Q30 15 50 11 Q70 15 72 37 L68 62 Q50 74 32 62Z" fill="#91664f"/><path d="M32 27 L18 7 M68 27 L82 7" stroke="#d8c6a2" stroke-width="8" stroke-linecap="round"/><path d="M16 96 Q18 65 50 61 Q82 65 84 96" fill="#342544"/></symbol><symbol id="portrait-big_mom" viewBox="0 0 100 100"><rect width="100" height="100" rx="14" fill="#4a273f"/><circle cx="50" cy="43" r="22" fill="#d49b82"/><path d="M23 34 Q30 8 50 19 Q70 7 78 34 Q67 25 64 45 Q50 31 36 45 Q33 25 23 34Z" fill="#e3a7c3"/><path d="M19 96 Q20 67 50 63 Q80 67 81 96" fill="#8d466d"/></symbol><symbol id="portrait-law" viewBox="0 0 100 100"><rect width="100" height="100" rx="14" fill="#29313e"/><circle cx="50" cy="42" r="19" fill="#cf9f72"/><path d="M27 30 Q50 10 73 30 L68 40 Q50 30 32 40Z" fill="#eee1b6" stroke="#423d33" stroke-width="3"/><circle cx="37" cy="28" r="3" fill="#4c4435"/><circle cx="50" cy="23" r="3" fill="#4c4435"/><circle cx="63" cy="28" r="3" fill="#4c4435"/><path d="M22 95 Q27 64 50 61 Q73 64 78 95" fill="#313543"/></symbol><symbol id="portrait-kid" viewBox="0 0 100 100"><rect width="100" height="100" rx="14" fill="#3f1d1e"/><circle cx="50" cy="42" r="19" fill="#c39168"/><path d="M26 30 L32 13 L39 24 L48 9 L55 24 L69 11 L72 32Z" fill="#b63838"/><path d="M19 96 Q24 64 50 61 Q76 64 81 96" fill="#502a2a"/></symbol><symbol id="portrait-yamato" viewBox="0 0 100 100"><rect width="100" height="100" rx="14" fill="#2d4957"/><circle cx="50" cy="43" r="19" fill="#d8aa83"/><path d="M29 30 Q50 10 71 30 Q63 24 58 42 Q48 31 34 41Z" fill="#e6e7df"/><path d="M31 27 L20 10 M69 27 L80 10" stroke="#d7cbb6" stroke-width="6"/><path d="M21 96 Q25 64 50 62 Q75 64 79 96" fill="#edf0ed"/><path d="M23 85 Q50 65 77 85" stroke="#75b7d0" stroke-width="8"/></symbol><symbol id="portrait-king" viewBox="0 0 100 100"><rect width="100" height="100" rx="14" fill="#151219"/><path d="M31 24 Q50 8 69 24 L73 61 Q50 74 27 61Z" fill="#252128"/><path d="M23 95 Q27 65 50 61 Q73 65 77 95" fill="#151318"/><path d="M31 29 L18 8 M69 29 L82 8" stroke="#242228" stroke-width="8"/><path d="M38 43 H62" stroke="#e76e63" stroke-width="4"/><path d="M80 25 Q92 43 82 58" fill="none" stroke="#f0a24d" stroke-width="7"/></symbol><symbol id="portrait-queen" viewBox="0 0 100 100"><rect width="100" height="100" rx="14" fill="#4e451c"/><circle cx="50" cy="44" r="22" fill="#c99c6e"/><path d="M27 28 Q50 8 73 28" stroke="#ddc54b" stroke-width="10"/><path d="M16 96 Q20 66 50 63 Q80 66 84 96" fill="#c39c38"/><rect x="30" y="42" width="15" height="9" rx="4" fill="#222"/><rect x="55" y="42" width="15" height="9" rx="4" fill="#222"/></symbol><symbol id="haki-armament" viewBox="0 0 100 100"><circle cx="50" cy="50" r="38" fill="#171717" stroke="#c44f5e" stroke-width="5"/><path d="M31 67 Q38 30 50 28 Q62 30 69 67 Q58 55 50 72 Q42 55 31 67Z" fill="#3c3c3c" stroke="#e06a77" stroke-width="3"/></symbol><symbol id="haki-observation" viewBox="0 0 100 100"><circle cx="50" cy="50" r="38" fill="#15252d" stroke="#79c5de" stroke-width="5"/><path d="M18 50 Q50 22 82 50 Q50 78 18 50Z" fill="none" stroke="#a5e4f6" stroke-width="5"/><circle cx="50" cy="50" r="10" fill="#a5e4f6"/></symbol><symbol id="haki-conqueror" viewBox="0 0 100 100"><circle cx="50" cy="50" r="38" fill="#251725" stroke="#d36ad5" stroke-width="5"/><path d="M52 11 L35 45 H48 L38 89 L69 47 H55 L67 20Z" fill="#f0b4f0"/><path d="M16 26 L30 39 M84 24 L70 39 M15 75 L31 62 M85 76 L69 62" stroke="#d36ad5" stroke-width="4"/></symbol><symbol id="fruit-fruit_nika" viewBox="0 0 100 100"><path d="M23 59 Q17 33 40 24 Q50 13 60 24 Q83 33 77 59 Q69 83 50 89 Q31 83 23 59Z" fill="#efeee4" stroke="#c8b98f" stroke-width="4"/><path d="M30 41 Q39 30 48 41 T67 41 M29 55 Q39 44 48 55 T68 55 M35 69 Q43 61 50 70 T65 68" fill="none" stroke="#8e80bd" stroke-width="4"/></symbol><symbol id="fruit-fruit_ope" viewBox="0 0 100 100"><path d="M50 15 Q78 18 80 45 Q82 72 50 87 Q18 72 20 45 Q22 18 50 15Z" fill="#e7d886" stroke="#7e6d2b" stroke-width="4"/><path d="M31 45 H69 M50 26 V66" stroke="#5f5330" stroke-width="6"/><circle cx="50" cy="46" r="21" fill="none" stroke="#5f5330" stroke-width="3"/></symbol><symbol id="fruit-fruit_jiki" viewBox="0 0 100 100"><path d="M27 23 Q50 8 73 23 L68 82 Q50 94 32 82Z" fill="#ad5053" stroke="#61262a" stroke-width="4"/><path d="M30 46 Q50 25 70 46 M30 62 Q50 41 70 62" fill="none" stroke="#e6a4a4" stroke-width="5"/></symbol><symbol id="fruit-fruit_seiryu" viewBox="0 0 100 100"><path d="M50 13 C79 18 86 50 66 68 C52 83 26 79 20 58 C16 41 27 26 42 24 C50 23 56 30 51 36 C47 42 37 38 39 31" fill="none" stroke="#68c4b7" stroke-width="8"/><path d="M65 24 L77 13 M73 33 L87 28" stroke="#d6e0c7" stroke-width="4"/></symbol><symbol id="fruit-fruit_soru" viewBox="0 0 100 100"><path d="M50 87 C18 67 17 42 35 33 C45 28 50 37 50 37 C50 37 55 28 65 33 C83 42 82 67 50 87Z" fill="#dd8bbd" stroke="#73385c" stroke-width="4"/><path d="M37 55 Q50 42 63 55 Q50 68 37 55Z" fill="#5c2c48"/></symbol><symbol id="fruit-fruit_pero" viewBox="0 0 100 100"><path d="M50 13 Q69 22 69 42 Q84 53 70 70 Q66 88 50 89 Q34 88 30 70 Q16 53 31 42 Q31 22 50 13Z" fill="#efa6c8" stroke="#8d496a" stroke-width="4"/><path d="M35 40 Q50 27 65 40 M32 56 Q50 43 68 56 M36 71 Q50 58 64 71" fill="none" stroke="#fff0f6" stroke-width="4"/></symbol><symbol id="fruit-fruit_yamata" viewBox="0 0 100 100"><circle cx="50" cy="54" r="31" fill="#78559a" stroke="#3b294d" stroke-width="4"/><path d="M22 38 Q20 18 34 20 Q42 20 43 35 M42 31 Q41 11 55 15 Q63 16 61 34 M59 34 Q64 14 76 22 Q84 31 71 42" fill="none" stroke="#bca1d0" stroke-width="6"/></symbol><symbol id="fruit-fruit_fude" viewBox="0 0 100 100"><path d="M27 76 Q43 45 58 23 Q65 14 72 21 Q79 28 70 35 Q49 52 27 76Z" fill="#8a5d36" stroke="#3e2b1b" stroke-width="4"/><path d="M30 72 Q21 82 15 88 Q31 86 37 77" fill="#d6d0c3"/><path d="M63 27 L75 15" stroke="#2d2824" stroke-width="6"/></symbol><symbol id="fruit-fruit_makami" viewBox="0 0 100 100"><circle cx="50" cy="52" r="31" fill="#ece9df" stroke="#7a8fa1" stroke-width="4"/><path d="M28 41 L21 19 L39 31 M72 41 L79 19 L61 31" fill="#d9e3ec" stroke="#7a8fa1" stroke-width="4"/><path d="M34 56 Q50 72 66 56 M42 47 H46 M54 47 H58" stroke="#47697b" stroke-width="4" fill="none"/></symbol><symbol id="fruit-fruit_pteranodon" viewBox="0 0 100 100"><path d="M18 61 Q33 26 50 48 Q67 26 82 61 Q62 51 50 78 Q38 51 18 61Z" fill="#6f465f" stroke="#2d1e28" stroke-width="4"/><path d="M50 48 L50 22" stroke="#d29aac" stroke-width="4"/></symbol><symbol id="fruit-fruit_brachio" viewBox="0 0 100 100"><circle cx="43" cy="59" r="25" fill="#c5a04b" stroke="#6d5520" stroke-width="4"/><path d="M55 49 Q72 26 69 13 Q85 25 70 57" fill="none" stroke="#c5a04b" stroke-width="12"/><circle cx="71" cy="17" r="5" fill="#322819"/></symbol><symbol id="fruit-fruit_mammoth" viewBox="0 0 100 100"><circle cx="50" cy="52" r="30" fill="#8f755e" stroke="#4b3b2f" stroke-width="4"/><path d="M37 44 Q25 30 19 47 M63 44 Q75 30 81 47 M41 54 Q50 82 59 54" fill="none" stroke="#e8ddc7" stroke-width="6"/><circle cx="39" cy="43" r="4" fill="#201914"/><circle cx="61" cy="43" r="4" fill="#201914"/></symbol><symbol id="weapon-weapon_enma" viewBox="0 0 100 100"><rect width="100" height="100" rx="16" fill="#1b201c"/><path d="M23 82 L70 21" stroke="#6a4f8a" stroke-width="7"/><path d="M64 24 L77 13" stroke="#e6d7f3" stroke-width="4"/><path d="M35 65 L48 75" stroke="#d4b56c" stroke-width="5"/></symbol><symbol id="weapon-weapon_wado" viewBox="0 0 100 100"><rect width="100" height="100" rx="16" fill="#1b201c"/><path d="M22 82 L70 22" stroke="#eee7d0" stroke-width="7"/><path d="M63 26 L78 12" stroke="#eee7d0" stroke-width="4"/><path d="M34 64 L47 75" stroke="#d2a560" stroke-width="5"/></symbol><symbol id="weapon-weapon_sandai" viewBox="0 0 100 100"><rect width="100" height="100" rx="16" fill="#1b201c"/><path d="M24 83 L69 20" stroke="#9a4451" stroke-width="7"/><path d="M65 22 L80 10" stroke="#e4c1c6" stroke-width="4"/><circle cx="40" cy="65" r="7" fill="none" stroke="#d8bd6f" stroke-width="4"/></symbol><symbol id="weapon-weapon_ame" viewBox="0 0 100 100"><rect width="100" height="100" rx="16" fill="#1b201c"/><path d="M22 82 L71 19" stroke="#6ea5b7" stroke-width="7"/><path d="M65 23 L80 10" stroke="#d9eff5" stroke-width="4"/><path d="M33 64 L47 75" stroke="#e4cb77" stroke-width="5"/></symbol><symbol id="weapon-weapon_kaido_kanabo" viewBox="0 0 100 100"><rect width="100" height="100" rx="16" fill="#1b201c"/><path d="M31 82 L64 19" stroke="#4d4a4a" stroke-width="13" stroke-linecap="round"/><path d="M51 34 L65 40 M45 47 L59 53 M39 60 L53 66" stroke="#a7a29a" stroke-width="4"/></symbol><symbol id="weapon-weapon_napoleon" viewBox="0 0 100 100"><rect width="100" height="100" rx="16" fill="#1b201c"/><path d="M28 80 L67 23" stroke="#df668c" stroke-width="8"/><path d="M65 25 L79 13" stroke="#f1c7d5" stroke-width="4"/><path d="M34 67 Q50 53 59 64" fill="none" stroke="#f0d878" stroke-width="6"/></symbol><symbol id="weapon-weapon_kikoku" viewBox="0 0 100 100"><rect width="100" height="100" rx="16" fill="#1b201c"/><path d="M22 81 L71 20" stroke="#25252a" stroke-width="8"/><path d="M65 24 L80 10" stroke="#dcdde2" stroke-width="4"/><path d="M33 66 L49 75" stroke="#8f6ab8" stroke-width="5"/></symbol><symbol id="weapon-weapon_punk_blades" viewBox="0 0 100 100"><rect width="100" height="100" rx="16" fill="#1b201c"/><path d="M22 75 L73 25 M28 84 L79 34" stroke="#85898c" stroke-width="7"/><path d="M18 71 L29 82 M68 20 L80 32" stroke="#d66c62" stroke-width="4"/></symbol><symbol id="weapon-weapon_rotating" viewBox="0 0 100 100"><rect width="100" height="100" rx="16" fill="#1b201c"/><circle cx="38" cy="50" r="22" fill="none" stroke="#aeb3b5" stroke-width="7"/><circle cx="67" cy="50" r="22" fill="none" stroke="#aeb3b5" stroke-width="7"/><path d="M38 23 V77 M11 50 H65 M67 23 V77 M40 50 H94" stroke="#73797c" stroke-width="4"/></symbol><symbol id="sprite-generic" viewBox="0 0 100 100"><circle cx="50" cy="29" r="13" fill="#cab08a"/><path d="M34 42 H66 L73 85 H27Z" fill="#506158"/><path d="M27 60 L14 75 M73 60 L86 75 M40 84 L34 96 M60 84 L66 96" stroke="#3a443e" stroke-width="8" stroke-linecap="round"/></symbol><symbol id="sprite-kaido" viewBox="0 0 100 100"><circle cx="50" cy="25" r="15" fill="#91664f"/><path d="M38 18 L27 3 M62 18 L73 3" stroke="#d8c6a2" stroke-width="7"/><path d="M28 40 H72 L83 86 H17Z" fill="#392849"/><path d="M20 55 L5 75 M80 55 L95 75 M37 85 L28 99 M63 85 L72 99" stroke="#2b2035" stroke-width="10" stroke-linecap="round"/></symbol><symbol id="sprite-law" viewBox="0 0 100 100"><circle cx="50" cy="27" r="13" fill="#c99d75"/><path d="M33 22 Q50 8 67 22 L64 31 Q50 24 36 31Z" fill="#e8ddba"/><path d="M32 40 H68 L72 84 H28Z" fill="#303845"/><path d="M28 55 L14 72 M72 55 L86 72 M40 83 L34 97 M60 83 L66 97" stroke="#283039" stroke-width="8" stroke-linecap="round"/><path d="M66 48 L88 20" stroke="#dedede" stroke-width="4"/></symbol><symbol id="sprite-zoro" viewBox="0 0 100 100"><circle cx="50" cy="27" r="13" fill="#c89d70"/><path d="M34 20 Q50 8 67 20" stroke="#75aa67" stroke-width="8"/><path d="M31 41 H69 L73 85 H27Z" fill="#31513d"/><path d="M28 56 L14 73 M72 56 L86 73 M40 84 L34 98 M60 84 L66 98" stroke="#294233" stroke-width="8" stroke-linecap="round"/><path d="M68 50 L91 23 M66 57 L92 39 M67 64 L91 55" stroke="#ded7c7" stroke-width="3"/></symbol><symbol id="sprite-chopper" viewBox="0 0 100 100"><circle cx="50" cy="42" r="17" fill="#a36f55"/><path d="M38 27 L27 13 M62 27 L73 13" stroke="#c8b28e" stroke-width="5"/><path d="M29 33 Q50 17 71 33" stroke="#de6f80" stroke-width="9"/><path d="M35 56 H65 L70 82 H30Z" fill="#8c5b43"/><path d="M35 80 L29 94 M65 80 L71 94" stroke="#6e4938" stroke-width="7"/></symbol>
</svg>