<svg xmlns="http://www.w3.org/2000/svg" viewBox="0 0 1440 1150">
<defs>
 <linearGradient id="sea" x1="0" y1="0" x2="0" y2="1"><stop stop-color="#163948"/><stop offset="1" stop-color="#071c28"/></linearGradient>
 <radialGradient id="land" cx="50%" cy="42%" r="70%"><stop stop-color="#8d7548"/><stop offset=".5" stop-color="#536042"/><stop offset="1" stop-color="#27392e"/></radialGradient>
 <filter id="shadow"><feDropShadow dx="0" dy="10" stdDeviation="12" flood-color="#000" flood-opacity=".65"/></filter>
 <filter id="soft"><feGaussianBlur stdDeviation="12"/></filter>
 <pattern id="waves" width="52" height="26" patternUnits="userSpaceOnUse"><path d="M0 13 Q13 2 26 13 T52 13" fill="none" stroke="#8db0b4" stroke-opacity=".16" stroke-width="2"/></pattern>
</defs>
<rect width="1440" height="1150" fill="url(#sea)"/><rect width="1440" height="1150" fill="url(#waves)"/>
<!-- land mass -->
<path d="M175 250 Q225 135 380 105 Q545 80 650 155 Q755 86 887 138 Q1003 170 1076 265 Q1165 330 1144 435 Q1238 520 1172 632 Q1240 748 1142 834 Q1066 923 915 900 Q838 1010 700 943 Q572 1025 476 916 Q348 931 292 830 Q159 760 210 626 Q108 532 198 418 Q145 344 175 250Z" fill="url(#land)" stroke="#b8a36c" stroke-opacity=".45" stroke-width="5" filter="url(#shadow)"/>
<!-- regional elevation -->
<path d="M278 310 Q395 205 530 248 T755 226" fill="none" stroke="#283b30" stroke-width="95" stroke-linecap="round" opacity=".65"/>
<path d="M690 345 Q860 258 1010 345 T1040 570" fill="none" stroke="#344537" stroke-width="118" stroke-linecap="round" opacity=".6"/>
<path d="M410 690 Q620 550 814 694 T1050 745" fill="none" stroke="#394d38" stroke-width="125" stroke-linecap="round" opacity=".62"/>
<!-- rivers -->
<path d="M685 215 C665 350 720 410 680 520 C646 610 580 690 522 840" fill="none" stroke="#82a9b2" stroke-opacity=".6" stroke-width="18"/>
<path d="M870 300 C835 405 890 500 842 612 C814 680 760 740 718 850" fill="none" stroke="#6f9da8" stroke-opacity=".45" stroke-width="11"/>
<!-- mountain chains -->
<g fill="#303829" stroke="#a28f61" stroke-opacity=".35">
 <path d="M255 320 l48-92 50 92 42-70 52 93z"/><path d="M432 230 l52-100 55 102 39-61 58 84z"/>
 <path d="M865 255 l57-102 58 104 44-72 65 99z"/><path d="M930 520 l48-91 52 96 38-61 58 90z"/>
 <path d="M310 720 l58-104 55 102 42-76 68 107z"/>
 <path d="M720 782 l54-96 54 101 48-79 63 100"/>
</g>
<!-- forests -->
<g fill="#203d2f" opacity=".88">
 <circle cx="350" cy="520" r="72"/><circle cx="445" cy="550" r="61"/><circle cx="990" cy="710" r="72"/><circle cx="910" cy="760" r="54"/><circle cx="285" cy="430" r="48"/>
</g>
<!-- cherry accents -->
<g fill="#d08ba1" opacity=".38"><circle cx="555" cy="360" r="30"/><circle cx="602" cy="335" r="22"/><circle cx="790" cy="510" r="28"/><circle cx="750" cy="548" r="22"/><circle cx="470" cy="770" r="24"/></g>
<!-- roads -->
<g fill="none" stroke="#d3c29b" stroke-opacity=".23" stroke-width="9" stroke-linecap="round" stroke-dasharray="2 15"><path d="M240 330 C400 340 510 490 650 430 S880 390 1040 520"/><path d="M330 590 C500 600 650 520 870 560 S1030 650 1110 770"/><path d="M250 820 C450 790 580 760 705 760 S910 700 1060 690"/></g>
<!-- Onigashima and SE anchorage islands -->
<g filter="url(#shadow)"><path d="M1182 76 Q1285 22 1366 98 Q1390 170 1322 222 Q1235 250 1168 184 Q1138 126 1182 76Z" fill="#3b4232" stroke="#a48b5b" stroke-width="4"/><path d="M1160 855 Q1252 811 1350 880 Q1377 960 1310 1038 Q1200 1067 1130 987 Q1110 912 1160 855Z" fill="#334235" stroke="#9d865a" stroke-width="4"/></g>
<!-- atmospheric smoke zones -->
<g fill="#d39b66" opacity=".08" filter="url(#soft)"><ellipse cx="870" cy="560" rx="150" ry="110"/><ellipse cx="1025" cy="690" rx="120" ry="100"/></g>
</svg>
